# xmcd CD database file
#
# Track frame offsets:
#	150
#	23520
#	56935
#	89622
#	114580
#	145487
#	171375
#	195895
#	211470
#	235930
#
# Disc length: 3447 seconds
#
# Revision: 0
# Processed by: cddbd v1.5.1PL2 Copyright (c) Steve Scherf et al.
# Submitted via: CDex 1.60beta1
#
DISCID=8e0d750a
DTITLE=YMO(Yellow Magic Orchestra) - WHO'S YMO - 再日本製 - BABY-TOKIO and ELECTRIC FRIENDS
DYEAR=1993
DGENRE=Techno
TTITLE0=04SS'T/HAPPY END
TTITLE1=RE-PLICANT J.B./NICE AGE
TTITLE2=T2/INSOMNIA
TTITLE3=OPUS/DAY TRIPPER
TTITLE4=04DD/MUSIC PLANS
TTITLE5=BLUE IN THE FOREST/CUE
TTITLE6=B-2DEP'T/THE END OF ASIA
TTITLE7=E-SCOPE/TAISO
TTITLE8=LIBERATOR/RAP PHENOMENA
TTITLE9=INTERFERON/EPILOGUE
EXTD=YEAR: 1993
EXTT0=
EXTT1=
EXTT2=
EXTT3=
EXTT4=
EXTT5=
EXTT6=
EXTT7=
EXTT8=
EXTT9=
PLAYORDER=
